:SAMPLES-PER-SECOND 30
:FULLY-SPECIFIED
:DEGREES
336
root  0.463695 39.6321 13.1531 -172.761 3.70677 -179.571
RightUpLeg  -16.6671 1.96868 -7.45544
RightLeg  14.0749 4.78941 -0.172069
RightFoot  -3.1525 -0.484051 6.54642
RightToes  -1.33073e-015 0 -3.6325e-017
Spine  20.3373 1.09508 3.53417
Spine1  7.91539 0.81002 3.76525
HEad  8.29917 -6.52391 3.69118
LeftShoulder1  6.38372 -16.4689 -25.7817
LeftArm  -5.38748 -35.4376 -76.9731
LeftForeArm  30.3372 5.986 -1.17969
LeftHand  -0.246645 0.021 5.37786
RightShoulder  9.2598 17.4496 38.0979
RightArm  -6.63379 36.8028 55.5388
RightForeArm  28.828 -1.8333 8.05685
RightHand  -0.24729 -0.0210522 -5.37781
LeftUpLeg  -13.2842 16.893 11.4083
LeftLeg  11.7039 3.38677 -1.13923
LeftFoot  -0.43267 1.02329 -10.7229
LeftToes  5.09284e-011 3.02203e-011 3.83118e-011
337
root  0.484019 39.6227 13.1682 -172.642 3.89145 -179.674
RightUpLeg  -16.9868 2.16192 -7.60251
RightLeg  14.3093 4.74427 -0.083176
RightFoot  -3.2167 -0.480287 6.51644
RightToes  -1.33073e-015 0 -3.6325e-017
Spine  20.3228 1.17719 3.52089
Spine1  7.88151 0.921499 3.66935
HEad  8.14348 -6.35997 3.50137
LeftShoulder1  6.39008 -16.4311 -25.8785
LeftArm  -5.38913 -35.3538 -76.8092
LeftForeArm  30.4541 5.99274 -1.22792
LeftHand  -0.246645 0.021 5.37786
RightShoulder  9.20626 17.4773 37.7947
RightArm  -6.33998 37.0091 55.8622
RightForeArm  28.9828 -2.34985 8.11465
RightHand  -0.24729 -0.0210522 -5.37781
LeftUpLeg  -13.3973 16.9445 11.3034
LeftLeg  11.7166 3.53223 -1.11808
LeftFoot  -0.406731 1.02168 -10.7254
LeftToes  5.09284e-011 3.02203e-011 3.83118e-011
338
root  0.508253 39.6077 13.1849 -172.653 4.04698 -179.701
RightUpLeg  -17.1795 2.41688 -7.66802
RightLeg  14.5904 4.62338 0.0044013
RightFoot  -3.31018 -0.474664 6.45716
RightToes  -1.33073e-015 0 -3.6325e-017
Spine  20.4655 1.2426 3.63909
Spine1  7.83676 1.0642 3.49266
HEad  8.07917 -6.31089 3.54276
LeftShoulder1  6.422 -16.4516 -26.0103
LeftArm  -5.3183 -35.2979 -76.5724
LeftForeArm  30.4529 6.01251 -1.34368
LeftHand  -0.246645 0.021 5.37786
RightShoulder  9.16123 17.5093 37.5216
RightArm  -6.16763 37.2505 56.0985
RightForeArm  29.4048 -2.76355 8.12287
RightHand  -0.24729 -0.0210522 -5.37781
LeftUpLeg  -13.4492 17.1474 11.2869
LeftLeg  11.8671 3.44682 -1.07471
LeftFoot  -0.447056 1.02258 -10.7672
LeftToes  5.09284e-011 3.02203e-011 3.83118e-011
339
root  0.530886 39.5955 13.1977 -172.835 4.09573 -179.607
RightUpLeg  -17.0837 2.6536 -7.57029
RightLeg  14.7475 4.45403 0.0242566
RightFoot  -3.38083 -0.470727 6.42364
RightToes  -1.33073e-015 0 -3.6325e-017
Spine  20.8017 1.23102 4.00279
Spine1  7.79855 1.2168 3.15413
HEad  8.00543 -6.42415 3.71655
LeftShoulder1  6.48933 -16.5173 -26.2493
LeftArm  -5.25151 -35.3528 -76.2523
LeftForeArm  30.5744 6.02647 -1.4348
LeftHand  -0.246645 0.021 5.37786
RightShoulder  9.14095 17.5176 37.4167
RightArm  -6.28737 37.2703 56.0855
RightForeArm  29.612 -2.557 8.07035
RightHand  -0.24729 -0.0210522 -5.37781
LeftUpLeg  -13.3689 17.4087 11.4235
LeftLeg  12.095 3.17198 -1.02316
LeftFoot  -0.536942 1.02543 -10.8242
LeftToes  5.09284e-011 3.02203e-011 3.83118e-011
340
root  0.545869 39.589 13.2129 -172.962 4.13939 -179.555
RightUpLeg  -17.0131 2.81005 -7.51029
RightLeg  14.82 4.35734 0.026494
RightFoot  -3.4049 -0.469695 6.43129
RightToes  -1.33073e-015 0 -3.6325e-017
Spine  21.079 1.1963 4.32364
Spine1  7.78816 1.34057 2.7984
HEad  7.97667 -6.51236 3.83531
LeftShoulder1  6.54368 -16.5523 -26.4717
LeftArm  -5.22119 -35.5122 -75.9966
LeftForeArm  30.805 6.02654 -1.45288
LeftHand  -0.246645 0.021 5.37786
RightShoulder  9.15679 17.5211 37.5092
RightArm  -6.44188 37.1487 55.8615
RightForeArm  29.4747 -1.96632 8.06216
RightHand  -0.24729 -0.0210522 -5.37781
LeftUpLeg  -13.2998 17.5333 11.5133
LeftLeg  12.216 3.05281 -0.987501
LeftFoot  -0.579212 1.02905 -10.8617
LeftToes  5.09284e-011 3.02203e-011 3.83118e-011
